<mxfile host="app.diagrams.net" modified="2022-04-02T23:31:53.458Z" agent="5.0 (X11)" etag="-opEfbk4Ga2eybXbn555" version="17.4.0" type="github">
  <diagram id="F8pU09Uuk5RfwFiRcyk8" name="Page-1">
    <mxGraphModel dx="1350" dy="1893" grid="1" gridSize="10" guides="1" tooltips="1" connect="1" arrows="1" fold="1" page="1" pageScale="1" pageWidth="850" pageHeight="1100" math="0" shadow="0">
      <root>
        <mxCell id="0" />
        <mxCell id="1" parent="0" />
        <mxCell id="pV6YdhVixM4sVFlwqr_H-17" style="edgeStyle=orthogonalEdgeStyle;rounded=0;orthogonalLoop=1;jettySize=auto;html=1;exitX=0.5;exitY=1;exitDx=0;exitDy=0;entryX=0;entryY=0.5;entryDx=0;entryDy=0;" parent="1" source="pV6YdhVixM4sVFlwqr_H-1" target="pV6YdhVixM4sVFlwqr_H-7" edge="1">
          <mxGeometry relative="1" as="geometry">
            <mxPoint x="80.17647058823536" y="130" as="targetPoint" />
            <Array as="points">
              <mxPoint x="80" y="100" />
              <mxPoint x="170" y="100" />
            </Array>
          </mxGeometry>
        </mxCell>
        <mxCell id="pV6YdhVixM4sVFlwqr_H-22" style="edgeStyle=orthogonalEdgeStyle;rounded=0;orthogonalLoop=1;jettySize=auto;html=1;entryX=0;entryY=0.5;entryDx=0;entryDy=0;" parent="1" source="pV6YdhVixM4sVFlwqr_H-1" target="pV6YdhVixM4sVFlwqr_H-13" edge="1">
          <mxGeometry relative="1" as="geometry" />
        </mxCell>
        <mxCell id="6l07UeQ_a1GeNImIrbiU-18" style="edgeStyle=orthogonalEdgeStyle;rounded=0;orthogonalLoop=1;jettySize=auto;html=1;exitX=0.75;exitY=0;exitDx=0;exitDy=0;entryX=0;entryY=0.5;entryDx=0;entryDy=0;" edge="1" parent="1" source="pV6YdhVixM4sVFlwqr_H-1" target="6l07UeQ_a1GeNImIrbiU-15">
          <mxGeometry relative="1" as="geometry" />
        </mxCell>
        <mxCell id="6l07UeQ_a1GeNImIrbiU-20" style="edgeStyle=orthogonalEdgeStyle;rounded=0;orthogonalLoop=1;jettySize=auto;html=1;exitX=1;exitY=0;exitDx=0;exitDy=0;entryX=0;entryY=0.5;entryDx=0;entryDy=0;" edge="1" parent="1" source="pV6YdhVixM4sVFlwqr_H-1" target="6l07UeQ_a1GeNImIrbiU-19">
          <mxGeometry relative="1" as="geometry" />
        </mxCell>
        <mxCell id="pV6YdhVixM4sVFlwqr_H-1" value="&lt;div&gt;Recepcionista&lt;/div&gt;" style="rounded=0;whiteSpace=wrap;html=1;" parent="1" vertex="1">
          <mxGeometry x="20" y="10" width="120" height="60" as="geometry" />
        </mxCell>
        <mxCell id="pV6YdhVixM4sVFlwqr_H-3" value="Dieta" style="rounded=0;whiteSpace=wrap;html=1;" parent="1" vertex="1">
          <mxGeometry x="425" y="330" width="120" height="60" as="geometry" />
        </mxCell>
        <mxCell id="pV6YdhVixM4sVFlwqr_H-33" style="edgeStyle=orthogonalEdgeStyle;rounded=0;orthogonalLoop=1;jettySize=auto;html=1;entryX=0.5;entryY=0;entryDx=0;entryDy=0;" parent="1" source="pV6YdhVixM4sVFlwqr_H-4" target="pV6YdhVixM4sVFlwqr_H-10" edge="1">
          <mxGeometry relative="1" as="geometry" />
        </mxCell>
        <mxCell id="pV6YdhVixM4sVFlwqr_H-37" style="edgeStyle=orthogonalEdgeStyle;rounded=0;orthogonalLoop=1;jettySize=auto;html=1;exitX=0;exitY=0.5;exitDx=0;exitDy=0;entryX=1;entryY=0.5;entryDx=0;entryDy=0;" parent="1" source="pV6YdhVixM4sVFlwqr_H-4" target="pV6YdhVixM4sVFlwqr_H-8" edge="1">
          <mxGeometry relative="1" as="geometry" />
        </mxCell>
        <mxCell id="pV6YdhVixM4sVFlwqr_H-42" style="edgeStyle=orthogonalEdgeStyle;rounded=0;orthogonalLoop=1;jettySize=auto;html=1;exitX=0.5;exitY=0;exitDx=0;exitDy=0;entryX=0.5;entryY=1;entryDx=0;entryDy=0;" parent="1" source="pV6YdhVixM4sVFlwqr_H-4" target="pV6YdhVixM4sVFlwqr_H-9" edge="1">
          <mxGeometry relative="1" as="geometry" />
        </mxCell>
        <mxCell id="6l07UeQ_a1GeNImIrbiU-16" style="edgeStyle=orthogonalEdgeStyle;rounded=0;orthogonalLoop=1;jettySize=auto;html=1;exitX=1;exitY=0.25;exitDx=0;exitDy=0;entryX=1;entryY=0.5;entryDx=0;entryDy=0;" edge="1" parent="1" source="pV6YdhVixM4sVFlwqr_H-4" target="6l07UeQ_a1GeNImIrbiU-15">
          <mxGeometry relative="1" as="geometry" />
        </mxCell>
        <mxCell id="pV6YdhVixM4sVFlwqr_H-4" value="Cliente" style="rounded=0;whiteSpace=wrap;html=1;" parent="1" vertex="1">
          <mxGeometry x="680" y="210" width="120" height="60" as="geometry" />
        </mxCell>
        <mxCell id="pV6YdhVixM4sVFlwqr_H-35" style="edgeStyle=orthogonalEdgeStyle;rounded=0;orthogonalLoop=1;jettySize=auto;html=1;exitX=0.5;exitY=0;exitDx=0;exitDy=0;entryX=0;entryY=0.5;entryDx=0;entryDy=0;" parent="1" source="pV6YdhVixM4sVFlwqr_H-5" target="pV6YdhVixM4sVFlwqr_H-7" edge="1">
          <mxGeometry relative="1" as="geometry">
            <Array as="points">
              <mxPoint x="80" y="150" />
              <mxPoint x="170" y="150" />
            </Array>
          </mxGeometry>
        </mxCell>
        <mxCell id="pV6YdhVixM4sVFlwqr_H-38" style="edgeStyle=orthogonalEdgeStyle;rounded=0;orthogonalLoop=1;jettySize=auto;html=1;exitX=1;exitY=0.5;exitDx=0;exitDy=0;entryX=0;entryY=0.5;entryDx=0;entryDy=0;" parent="1" source="pV6YdhVixM4sVFlwqr_H-5" target="pV6YdhVixM4sVFlwqr_H-26" edge="1">
          <mxGeometry relative="1" as="geometry" />
        </mxCell>
        <mxCell id="pV6YdhVixM4sVFlwqr_H-41" style="edgeStyle=orthogonalEdgeStyle;rounded=0;orthogonalLoop=1;jettySize=auto;html=1;exitX=0.5;exitY=1;exitDx=0;exitDy=0;entryX=0;entryY=0.5;entryDx=0;entryDy=0;" parent="1" source="pV6YdhVixM4sVFlwqr_H-5" target="pV6YdhVixM4sVFlwqr_H-12" edge="1">
          <mxGeometry relative="1" as="geometry" />
        </mxCell>
        <mxCell id="6l07UeQ_a1GeNImIrbiU-11" style="edgeStyle=orthogonalEdgeStyle;rounded=0;orthogonalLoop=1;jettySize=auto;html=1;exitX=0.25;exitY=1;exitDx=0;exitDy=0;entryX=0;entryY=0.5;entryDx=0;entryDy=0;" edge="1" parent="1" source="pV6YdhVixM4sVFlwqr_H-5" target="6l07UeQ_a1GeNImIrbiU-10">
          <mxGeometry relative="1" as="geometry" />
        </mxCell>
        <mxCell id="pV6YdhVixM4sVFlwqr_H-5" value="&amp;nbsp;Nutricionista" style="rounded=0;whiteSpace=wrap;html=1;" parent="1" vertex="1">
          <mxGeometry x="20" y="210" width="120" height="60" as="geometry" />
        </mxCell>
        <mxCell id="pV6YdhVixM4sVFlwqr_H-6" value="Clinica" style="rounded=0;whiteSpace=wrap;html=1;" parent="1" vertex="1">
          <mxGeometry x="510" y="100" width="120" height="60" as="geometry" />
        </mxCell>
        <mxCell id="pV6YdhVixM4sVFlwqr_H-21" style="edgeStyle=orthogonalEdgeStyle;rounded=0;orthogonalLoop=1;jettySize=auto;html=1;entryX=0;entryY=0.5;entryDx=0;entryDy=0;" parent="1" source="pV6YdhVixM4sVFlwqr_H-7" target="pV6YdhVixM4sVFlwqr_H-6" edge="1">
          <mxGeometry relative="1" as="geometry" />
        </mxCell>
        <mxCell id="pV6YdhVixM4sVFlwqr_H-7" value="trabalha" style="rhombus;whiteSpace=wrap;html=1;" parent="1" vertex="1">
          <mxGeometry x="170" y="100" width="140" height="60" as="geometry" />
        </mxCell>
        <mxCell id="pV6YdhVixM4sVFlwqr_H-30" style="edgeStyle=orthogonalEdgeStyle;rounded=0;orthogonalLoop=1;jettySize=auto;html=1;entryX=1;entryY=0.5;entryDx=0;entryDy=0;" parent="1" source="pV6YdhVixM4sVFlwqr_H-8" target="pV6YdhVixM4sVFlwqr_H-16" edge="1">
          <mxGeometry relative="1" as="geometry" />
        </mxCell>
        <mxCell id="pV6YdhVixM4sVFlwqr_H-8" value="comparecer" style="rhombus;whiteSpace=wrap;html=1;" parent="1" vertex="1">
          <mxGeometry x="500" y="210" width="140" height="60" as="geometry" />
        </mxCell>
        <mxCell id="pV6YdhVixM4sVFlwqr_H-43" style="edgeStyle=orthogonalEdgeStyle;rounded=0;orthogonalLoop=1;jettySize=auto;html=1;exitX=0;exitY=0.5;exitDx=0;exitDy=0;entryX=1;entryY=0.5;entryDx=0;entryDy=0;" parent="1" source="pV6YdhVixM4sVFlwqr_H-9" target="pV6YdhVixM4sVFlwqr_H-6" edge="1">
          <mxGeometry relative="1" as="geometry" />
        </mxCell>
        <mxCell id="pV6YdhVixM4sVFlwqr_H-9" value="procura" style="rhombus;whiteSpace=wrap;html=1;" parent="1" vertex="1">
          <mxGeometry x="670" y="100" width="140" height="60" as="geometry" />
        </mxCell>
        <mxCell id="pV6YdhVixM4sVFlwqr_H-34" style="edgeStyle=orthogonalEdgeStyle;rounded=0;orthogonalLoop=1;jettySize=auto;html=1;entryX=1;entryY=0.5;entryDx=0;entryDy=0;" parent="1" source="pV6YdhVixM4sVFlwqr_H-10" target="pV6YdhVixM4sVFlwqr_H-3" edge="1">
          <mxGeometry relative="1" as="geometry" />
        </mxCell>
        <mxCell id="pV6YdhVixM4sVFlwqr_H-10" value="Faz" style="rhombus;whiteSpace=wrap;html=1;" parent="1" vertex="1">
          <mxGeometry x="670" y="330" width="140" height="60" as="geometry" />
        </mxCell>
        <mxCell id="pV6YdhVixM4sVFlwqr_H-32" style="edgeStyle=orthogonalEdgeStyle;rounded=0;orthogonalLoop=1;jettySize=auto;html=1;entryX=0;entryY=0.5;entryDx=0;entryDy=0;" parent="1" source="pV6YdhVixM4sVFlwqr_H-12" target="pV6YdhVixM4sVFlwqr_H-3" edge="1">
          <mxGeometry relative="1" as="geometry" />
        </mxCell>
        <mxCell id="pV6YdhVixM4sVFlwqr_H-12" value="Montar" style="rhombus;whiteSpace=wrap;html=1;" parent="1" vertex="1">
          <mxGeometry x="170" y="330" width="140" height="60" as="geometry" />
        </mxCell>
        <mxCell id="pV6YdhVixM4sVFlwqr_H-23" style="edgeStyle=orthogonalEdgeStyle;rounded=0;orthogonalLoop=1;jettySize=auto;html=1;" parent="1" source="pV6YdhVixM4sVFlwqr_H-13" target="pV6YdhVixM4sVFlwqr_H-16" edge="1">
          <mxGeometry relative="1" as="geometry" />
        </mxCell>
        <mxCell id="pV6YdhVixM4sVFlwqr_H-13" value="Marca" style="rhombus;whiteSpace=wrap;html=1;" parent="1" vertex="1">
          <mxGeometry x="340" y="10" width="140" height="60" as="geometry" />
        </mxCell>
        <mxCell id="pV6YdhVixM4sVFlwqr_H-16" value="Consulta MÃ©dica" style="rounded=0;whiteSpace=wrap;html=1;" parent="1" vertex="1">
          <mxGeometry x="350" y="210" width="120" height="60" as="geometry" />
        </mxCell>
        <mxCell id="pV6YdhVixM4sVFlwqr_H-39" style="edgeStyle=orthogonalEdgeStyle;rounded=0;orthogonalLoop=1;jettySize=auto;html=1;exitX=1;exitY=0.5;exitDx=0;exitDy=0;" parent="1" source="pV6YdhVixM4sVFlwqr_H-26" target="pV6YdhVixM4sVFlwqr_H-16" edge="1">
          <mxGeometry relative="1" as="geometry" />
        </mxCell>
        <mxCell id="pV6YdhVixM4sVFlwqr_H-26" value="Atende" style="rhombus;whiteSpace=wrap;html=1;" parent="1" vertex="1">
          <mxGeometry x="170" y="210" width="140" height="60" as="geometry" />
        </mxCell>
        <mxCell id="6l07UeQ_a1GeNImIrbiU-3" style="edgeStyle=orthogonalEdgeStyle;rounded=0;orthogonalLoop=1;jettySize=auto;html=1;exitX=0.5;exitY=1;exitDx=0;exitDy=0;entryX=1;entryY=0.5;entryDx=0;entryDy=0;" edge="1" parent="1" source="6l07UeQ_a1GeNImIrbiU-6" target="pV6YdhVixM4sVFlwqr_H-4">
          <mxGeometry relative="1" as="geometry">
            <mxPoint x="860" y="40" as="sourcePoint" />
          </mxGeometry>
        </mxCell>
        <mxCell id="6l07UeQ_a1GeNImIrbiU-2" value="" style="endArrow=classic;html=1;rounded=0;exitX=0.5;exitY=0;exitDx=0;exitDy=0;entryX=0;entryY=0.5;entryDx=0;entryDy=0;" edge="1" parent="1" source="pV6YdhVixM4sVFlwqr_H-1" target="6l07UeQ_a1GeNImIrbiU-6">
          <mxGeometry width="50" height="50" relative="1" as="geometry">
            <mxPoint x="530" y="110" as="sourcePoint" />
            <mxPoint x="800" y="-20" as="targetPoint" />
            <Array as="points">
              <mxPoint x="80" y="-70" />
              <mxPoint x="80" y="-200" />
            </Array>
          </mxGeometry>
        </mxCell>
        <mxCell id="6l07UeQ_a1GeNImIrbiU-6" value="Cadastra" style="rhombus;whiteSpace=wrap;html=1;" vertex="1" parent="1">
          <mxGeometry x="780" y="-230" width="140" height="60" as="geometry" />
        </mxCell>
        <mxCell id="6l07UeQ_a1GeNImIrbiU-7" value="InformaÃ§Ãµes" style="rounded=0;whiteSpace=wrap;html=1;" vertex="1" parent="1">
          <mxGeometry x="510" y="-70" width="120" height="60" as="geometry" />
        </mxCell>
        <mxCell id="6l07UeQ_a1GeNImIrbiU-12" style="edgeStyle=orthogonalEdgeStyle;rounded=0;orthogonalLoop=1;jettySize=auto;html=1;exitX=1;exitY=0.5;exitDx=0;exitDy=0;entryX=0.5;entryY=1;entryDx=0;entryDy=0;" edge="1" parent="1" source="6l07UeQ_a1GeNImIrbiU-10" target="pV6YdhVixM4sVFlwqr_H-3">
          <mxGeometry relative="1" as="geometry" />
        </mxCell>
        <mxCell id="6l07UeQ_a1GeNImIrbiU-10" value="Cadastra" style="rhombus;whiteSpace=wrap;html=1;" vertex="1" parent="1">
          <mxGeometry x="170" y="400" width="140" height="60" as="geometry" />
        </mxCell>
        <mxCell id="6l07UeQ_a1GeNImIrbiU-17" style="edgeStyle=orthogonalEdgeStyle;rounded=0;orthogonalLoop=1;jettySize=auto;html=1;exitX=0.5;exitY=1;exitDx=0;exitDy=0;" edge="1" parent="1" source="6l07UeQ_a1GeNImIrbiU-15" target="6l07UeQ_a1GeNImIrbiU-7">
          <mxGeometry relative="1" as="geometry" />
        </mxCell>
        <mxCell id="6l07UeQ_a1GeNImIrbiU-15" value="Consulta" style="rhombus;whiteSpace=wrap;html=1;" vertex="1" parent="1">
          <mxGeometry x="500" y="-180" width="140" height="60" as="geometry" />
        </mxCell>
        <mxCell id="6l07UeQ_a1GeNImIrbiU-21" style="edgeStyle=orthogonalEdgeStyle;rounded=0;orthogonalLoop=1;jettySize=auto;html=1;exitX=1;exitY=0.5;exitDx=0;exitDy=0;entryX=0;entryY=0.25;entryDx=0;entryDy=0;" edge="1" parent="1" source="6l07UeQ_a1GeNImIrbiU-19" target="6l07UeQ_a1GeNImIrbiU-7">
          <mxGeometry relative="1" as="geometry">
            <Array as="points">
              <mxPoint x="510" y="-50" />
            </Array>
          </mxGeometry>
        </mxCell>
        <mxCell id="6l07UeQ_a1GeNImIrbiU-19" value="Altera" style="rhombus;whiteSpace=wrap;html=1;" vertex="1" parent="1">
          <mxGeometry x="270" y="-80" width="140" height="60" as="geometry" />
        </mxCell>
      </root>
    </mxGraphModel>
  </diagram>
</mxfile>
